0
SECTION
2
ENTITIES
0
LINE
10
-0.030600
20
4.004600
30
0.000000
11
-0.029000
21
3.815500
31
0.000000
0
LINE
10
-0.029000
20
3.815500
30
0.000000
11
-0.036400
21
1.849100
31
0.000000
0
LINE
10
-0.036400
20
1.849100
30
0.000000
11
-0.047100
21
0.433200
31
0.000000
0
LINE
10
-0.047100
20
0.433200
30
0.000000
11
0.269600
21
-0.088100
31
0.000000
0
LINE
10
0.269600
20
-0.088100
30
0.000000
11
2.453500
21
0.005100
31
0.000000
0
LINE
10
2.453500
20
0.005100
30
0.000000
11
4.404700
21
0.001400
31
0.000000
0
LINE
10
4.404700
20
0.001400
30
0.000000
11
6.402200
21
0.003200
31
0.000000
0
LINE
10
6.402200
20
0.003200
30
0.000000
11
8.401500
21
0.002100
31
0.000000
0
LINE
10
8.401500
20
0.002100
30
0.000000
11
10.398600
21
0.003900
31
0.000000
0
LINE
10
10.398600
20
0.003900
30
0.000000
11
12.399100
21
0.008300
31
0.000000
0
LINE
10
12.399100
20
0.008300
30
0.000000
11
14.401800
21
0.006500
31
0.000000
0
LINE
10
14.401800
20
0.006500
30
0.000000
11
16.400000
21
0.001400
31
0.000000
0
LINE
10
16.400000
20
0.001400
30
0.000000
11
18.394700
21
0.004200
31
0.000000
0
LINE
10
18.394700
20
0.004200
30
0.000000
11
20.394000
21
0.005900
31
0.000000
0
LINE
10
20.394000
20
0.005900
30
0.000000
11
22.396800
21
0.008800
31
0.000000
0
LINE
10
22.396800
20
0.008800
30
0.000000
11
24.395200
21
-0.000400
31
0.000000
0
LINE
10
24.395200
20
-0.000400
30
0.000000
11
26.388400
21
0.004900
31
0.000000
0
LINE
10
26.388400
20
0.004900
30
0.000000
11
28.391100
21
0.006500
31
0.000000
0
LINE
10
28.391100
20
0.006500
30
0.000000
11
30.391900
21
0.003800
31
0.000000
0
LINE
10
30.391900
20
0.003800
30
0.000000
11
32.389300
21
0.001100
31
0.000000
0
LINE
10
32.389300
20
0.001100
30
0.000000
11
34.387700
21
0.003100
31
0.000000
0
LINE
10
34.387700
20
0.003100
30
0.000000
11
36.387400
21
0.001100
31
0.000000
0
LINE
10
36.387400
20
0.001100
30
0.000000
11
38.386000
21
0.000500
31
0.000000
0
LINE
10
38.386000
20
0.000500
30
0.000000
11
40.386200
21
0.000700
31
0.000000
0
LINE
10
40.386200
20
0.000700
30
0.000000
11
42.385200
21
-0.002400
31
0.000000
0
LINE
10
42.385200
20
-0.002400
30
0.000000
11
44.382700
21
-0.001400
31
0.000000
0
LINE
10
44.382700
20
-0.001400
30
0.000000
11
46.381500
21
0.000100
31
0.000000
0
LINE
10
46.381500
20
0.000100
30
0.000000
11
48.629500
21
-0.016800
31
0.000000
0
LINE
10
48.629500
20
-0.016800
30
0.000000
11
50.500000
21
-0.016800
31
0.000000
0
LINE
10
50.500000
20
-0.016800
30
0.000000
11
50.500000
21
4.161600
31
0.000000
0
LINE
10
50.500000
20
4.161600
30
0.000000
11
50.500000
21
6.106600
31
0.000000
0
LINE
10
50.500000
20
6.106600
30
0.000000
11
50.500000
21
8.106700
31
0.000000
0
LINE
10
50.500000
20
8.106700
30
0.000000
11
50.500000
21
10.106100
31
0.000000
0
LINE
10
50.500000
20
10.106100
30
0.000000
11
50.500000
21
12.106200
31
0.000000
0
LINE
10
50.500000
20
12.106200
30
0.000000
11
50.500000
21
14.106700
31
0.000000
0
LINE
10
50.500000
20
14.106700
30
0.000000
11
50.500000
21
16.106700
31
0.000000
0
LINE
10
50.500000
20
16.106700
30
0.000000
11
50.500000
21
18.105700
31
0.000000
0
LINE
10
50.500000
20
18.105700
30
0.000000
11
50.500000
21
20.107800
31
0.000000
0
LINE
10
50.500000
20
20.107800
30
0.000000
11
50.500000
21
22.110800
31
0.000000
0
LINE
10
50.500000
20
22.110800
30
0.000000
11
50.500000
21
24.108800
31
0.000000
0
LINE
10
50.500000
20
24.108800
30
0.000000
11
50.500000
21
26.107200
31
0.000000
0
LINE
10
50.500000
20
26.107200
30
0.000000
11
50.500000
21
28.109500
31
0.000000
0
LINE
10
50.500000
20
28.109500
30
0.000000
11
50.500000
21
30.110500
31
0.000000
0
LINE
10
50.500000
20
30.110500
30
0.000000
11
50.500000
21
32.110400
31
0.000000
0
LINE
10
50.500000
20
32.110400
30
0.000000
11
50.500000
21
34.111100
31
0.000000
0
LINE
10
50.500000
20
34.111100
30
0.000000
11
50.500000
21
36.111900
31
0.000000
0
LINE
10
50.500000
20
36.111900
30
0.000000
11
50.500000
21
38.110400
31
0.000000
0
LINE
10
50.500000
20
38.110400
30
0.000000
11
50.500000
21
40.111800
31
0.000000
0
LINE
10
50.500000
20
40.111800
30
0.000000
11
50.500000
21
42.113700
31
0.000000
0
LINE
10
50.500000
20
42.113700
30
0.000000
11
50.500000
21
44.113700
31
0.000000
0
LINE
10
50.500000
20
44.113700
30
0.000000
11
50.500000
21
46.112100
31
0.000000
0
LINE
10
50.500000
20
46.112100
30
0.000000
11
50.500000
21
48.116100
31
0.000000
0
LINE
10
50.500000
20
48.116100
30
0.000000
11
50.500000
21
50.109700
31
0.000000
0
LINE
10
50.500000
20
50.109700
30
0.000000
11
50.500000
21
52.107000
31
0.000000
0
LINE
10
50.500000
20
52.107000
30
0.000000
11
50.500000
21
54.113000
31
0.000000
0
LINE
10
50.500000
20
54.113000
30
0.000000
11
50.500000
21
56.113000
31
0.000000
0
LINE
10
50.500000
20
56.113000
30
0.000000
11
50.500000
21
58.113200
31
0.000000
0
LINE
10
50.500000
20
58.113200
30
0.000000
11
50.500000
21
60.112900
31
0.000000
0
LINE
10
50.500000
20
60.112900
30
0.000000
11
50.500000
21
62.112200
31
0.000000
0
LINE
10
50.500000
20
62.112200
30
0.000000
11
50.500000
21
64.112500
31
0.000000
0
LINE
10
50.500000
20
64.112500
30
0.000000
11
50.500000
21
66.111300
31
0.000000
0
LINE
10
50.500000
20
66.111300
30
0.000000
11
50.500000
21
68.111700
31
0.000000
0
LINE
10
50.500000
20
68.111700
30
0.000000
11
50.500000
21
70.108600
31
0.000000
0
LINE
10
50.500000
20
70.108600
30
0.000000
11
50.500000
21
72.108800
31
0.000000
0
LINE
10
50.500000
20
72.108800
30
0.000000
11
50.500000
21
74.110600
31
0.000000
0
LINE
10
50.500000
20
74.110600
30
0.000000
11
50.500000
21
76.110600
31
0.000000
0
LINE
10
50.500000
20
76.110600
30
0.000000
11
50.500000
21
78.108100
31
0.000000
0
LINE
10
50.500000
20
78.108100
30
0.000000
11
50.500000
21
80.106100
31
0.000000
0
LINE
10
50.500000
20
80.106100
30
0.000000
11
50.500000
21
82.105400
31
0.000000
0
LINE
10
50.500000
20
82.105400
30
0.000000
11
50.500000
21
84.105800
31
0.000000
0
LINE
10
50.500000
20
84.105800
30
0.000000
11
50.500000
21
86.104200
31
0.000000
0
LINE
10
50.500000
20
86.104200
30
0.000000
11
50.500000
21
88.105100
31
0.000000
0
LINE
10
50.500000
20
88.105100
30
0.000000
11
50.500000
21
90.104200
31
0.000000
0
LINE
10
50.500000
20
90.104200
30
0.000000
11
50.500000
21
92.103400
31
0.000000
0
LINE
10
50.500000
20
92.103400
30
0.000000
11
50.500000
21
94.104000
31
0.000000
0
LINE
10
50.500000
20
94.104000
30
0.000000
11
50.500000
21
96.102000
31
0.000000
0
LINE
10
50.500000
20
96.102000
30
0.000000
11
50.500000
21
98.101600
31
0.000000
0
LINE
10
50.500000
20
98.101600
30
0.000000
11
50.500000
21
100.101300
31
0.000000
0
LINE
10
50.500000
20
100.101300
30
0.000000
11
50.500000
21
102.100300
31
0.000000
0
LINE
10
50.500000
20
102.100300
30
0.000000
11
50.500000
21
104.101000
31
0.000000
0
LINE
10
50.500000
20
104.101000
30
0.000000
11
50.500000
21
106.100300
31
0.000000
0
LINE
10
50.500000
20
106.100300
30
0.000000
11
50.500000
21
108.099100
31
0.000000
0
LINE
10
50.500000
20
108.099100
30
0.000000
11
50.500000
21
110.097700
31
0.000000
0
LINE
10
50.500000
20
110.097700
30
0.000000
11
50.500000
21
112.096900
31
0.000000
0
LINE
10
50.500000
20
112.096900
30
0.000000
11
50.500000
21
114.096300
31
0.000000
0
LINE
10
50.500000
20
114.096300
30
0.000000
11
50.500000
21
116.096300
31
0.000000
0
LINE
10
50.500000
20
116.096300
30
0.000000
11
50.500000
21
118.096200
31
0.000000
0
LINE
10
50.500000
20
118.096200
30
0.000000
11
50.500000
21
120.095600
31
0.000000
0
LINE
10
50.500000
20
120.095600
30
0.000000
11
50.500000
21
122.095500
31
0.000000
0
LINE
10
50.500000
20
122.095500
30
0.000000
11
50.500000
21
124.094800
31
0.000000
0
LINE
10
50.500000
20
124.094800
30
0.000000
11
50.500000
21
126.094000
31
0.000000
0
LINE
10
50.500000
20
126.094000
30
0.000000
11
50.500000
21
128.092500
31
0.000000
0
LINE
10
50.500000
20
128.092500
30
0.000000
11
50.500000
21
130.092200
31
0.000000
0
LINE
10
50.500000
20
130.092200
30
0.000000
11
50.500000
21
132.092900
31
0.000000
0
LINE
10
50.500000
20
132.092900
30
0.000000
11
50.500000
21
134.095300
31
0.000000
0
LINE
10
50.500000
20
134.095300
30
0.000000
11
50.500000
21
136.095600
31
0.000000
0
LINE
10
50.500000
20
136.095600
30
0.000000
11
50.500000
21
138.096300
31
0.000000
0
LINE
10
50.500000
20
138.096300
30
0.000000
11
50.500000
21
140.095400
31
0.000000
0
LINE
10
50.500000
20
140.095400
30
0.000000
11
50.500000
21
142.093400
31
0.000000
0
LINE
10
50.500000
20
142.093400
30
0.000000
11
50.500000
21
144.094100
31
0.000000
0
LINE
10
50.500000
20
144.094100
30
0.000000
11
50.500000
21
146.094400
31
0.000000
0
LINE
10
50.500000
20
146.094400
30
0.000000
11
50.500000
21
148.095500
31
0.000000
0
LINE
10
50.500000
20
148.095500
30
0.000000
11
50.500000
21
150.096900
31
0.000000
0
LINE
10
50.500000
20
150.096900
30
0.000000
11
50.500000
21
152.096400
31
0.000000
0
LINE
10
50.500000
20
152.096400
30
0.000000
11
50.500000
21
154.096300
31
0.000000
0
LINE
10
50.500000
20
154.096300
30
0.000000
11
50.500000
21
156.095800
31
0.000000
0
LINE
10
50.500000
20
156.095800
30
0.000000
11
50.500000
21
158.094700
31
0.000000
0
LINE
10
50.500000
20
158.094700
30
0.000000
11
50.500000
21
160.095600
31
0.000000
0
LINE
10
50.500000
20
160.095600
30
0.000000
11
50.500000
21
162.096500
31
0.000000
0
LINE
10
50.500000
20
162.096500
30
0.000000
11
50.500000
21
164.096200
31
0.000000
0
LINE
10
50.500000
20
164.096200
30
0.000000
11
50.500000
21
166.095300
31
0.000000
0
LINE
10
50.500000
20
166.095300
30
0.000000
11
50.500000
21
168.096600
31
0.000000
0
LINE
10
50.500000
20
168.096600
30
0.000000
11
50.500000
21
170.095900
31
0.000000
0
LINE
10
50.500000
20
170.095900
30
0.000000
11
50.500000
21
172.096700
31
0.000000
0
LINE
10
50.500000
20
172.096700
30
0.000000
11
50.500000
21
174.098100
31
0.000000
0
LINE
10
50.500000
20
174.098100
30
0.000000
11
50.500000
21
176.098000
31
0.000000
0
LINE
10
50.500000
20
176.098000
30
0.000000
11
50.500000
21
178.099100
31
0.000000
0
LINE
10
50.500000
20
178.099100
30
0.000000
11
50.500000
21
180.098500
31
0.000000
0
LINE
10
50.500000
20
180.098500
30
0.000000
11
50.500000
21
182.097900
31
0.000000
0
LINE
10
50.500000
20
182.097900
30
0.000000
11
50.500000
21
184.098600
31
0.000000
0
LINE
10
50.500000
20
184.098600
30
0.000000
11
50.500000
21
186.098700
31
0.000000
0
LINE
10
50.500000
20
186.098700
30
0.000000
11
50.500000
21
188.098100
31
0.000000
0
LINE
10
50.500000
20
188.098100
30
0.000000
11
50.500000
21
190.100000
31
0.000000
0
LINE
10
50.500000
20
190.100000
30
0.000000
11
50.500000
21
192.100200
31
0.000000
0
LINE
10
50.500000
20
192.100200
30
0.000000
11
50.500000
21
194.100200
31
0.000000
0
LINE
10
50.500000
20
194.100200
30
0.000000
11
50.500000
21
196.100300
31
0.000000
0
LINE
10
50.500000
20
196.100300
30
0.000000
11
50.500000
21
198.101400
31
0.000000
0
LINE
10
50.500000
20
198.101400
30
0.000000
11
50.500000
21
200.101800
31
0.000000
0
LINE
10
50.500000
20
200.101800
30
0.000000
11
50.500000
21
202.102500
31
0.000000
0
LINE
10
50.500000
20
202.102500
30
0.000000
11
50.500000
21
204.101900
31
0.000000
0
LINE
10
50.500000
20
204.101900
30
0.000000
11
50.500000
21
206.103100
31
0.000000
0
LINE
10
50.500000
20
206.103100
30
0.000000
11
50.500000
21
208.105100
31
0.000000
0
LINE
10
50.500000
20
208.105100
30
0.000000
11
50.500000
21
210.104400
31
0.000000
0
LINE
10
50.500000
20
210.104400
30
0.000000
11
50.500000
21
212.105400
31
0.000000
0
LINE
10
50.500000
20
212.105400
30
0.000000
11
50.500000
21
214.104800
31
0.000000
0
LINE
10
50.500000
20
214.104800
30
0.000000
11
50.500000
21
216.106700
31
0.000000
0
LINE
10
50.500000
20
216.106700
30
0.000000
11
50.500000
21
218.111600
31
0.000000
0
LINE
10
50.500000
20
218.111600
30
0.000000
11
50.500000
21
220.111200
31
0.000000
0
LINE
10
50.500000
20
220.111200
30
0.000000
11
50.500000
21
221.164500
31
0.000000
0
LINE
10
50.500000
20
221.164500
30
0.000000
11
50.316100
21
221.164500
31
0.000000
0
LINE
10
50.316100
20
221.164500
30
0.000000
11
48.722500
21
221.164500
31
0.000000
0
LINE
10
48.722500
20
221.164500
30
0.000000
11
46.473100
21
221.164500
31
0.000000
0
LINE
10
46.473100
20
221.164500
30
0.000000
11
46.072500
21
221.165100
31
0.000000
0
LINE
10
46.072500
20
221.165100
30
0.000000
11
44.076100
21
221.168000
31
0.000000
0
LINE
10
44.076100
20
221.168000
30
0.000000
11
42.082300
21
221.162100
31
0.000000
0
LINE
10
42.082300
20
221.162100
30
0.000000
11
40.083900
21
221.153500
31
0.000000
0
LINE
10
40.083900
20
221.153500
30
0.000000
11
38.082000
21
221.144900
31
0.000000
0
LINE
10
38.082000
20
221.144900
30
0.000000
11
36.081800
21
221.141700
31
0.000000
0
LINE
10
36.081800
20
221.141700
30
0.000000
11
34.081900
21
221.134300
31
0.000000
0
LINE
10
34.081900
20
221.134300
30
0.000000
11
32.082000
21
221.132900
31
0.000000
0
LINE
10
32.082000
20
221.132900
30
0.000000
11
30.085500
21
221.126300
31
0.000000
0
LINE
10
30.085500
20
221.126300
30
0.000000
11
28.084500
21
221.117800
31
0.000000
0
LINE
10
28.084500
20
221.117800
30
0.000000
11
26.080800
21
221.113500
31
0.000000
0
LINE
10
26.080800
20
221.113500
30
0.000000
11
24.081000
21
221.115500
31
0.000000
0
LINE
10
24.081000
20
221.115500
30
0.000000
11
22.088600
21
221.111800
31
0.000000
0
LINE
10
22.088600
20
221.111800
30
0.000000
11
20.092300
21
221.096100
31
0.000000
0
LINE
10
20.092300
20
221.096100
30
0.000000
11
18.086700
21
221.085400
31
0.000000
0
LINE
10
18.086700
20
221.085400
30
0.000000
11
16.084300
21
221.082500
31
0.000000
0
LINE
10
16.084300
20
221.082500
30
0.000000
11
14.086900
21
221.076900
31
0.000000
0
LINE
10
14.086900
20
221.076900
30
0.000000
11
12.087200
21
221.070000
31
0.000000
0
LINE
10
12.087200
20
221.070000
30
0.000000
11
10.087400
21
221.065600
31
0.000000
0
LINE
10
10.087400
20
221.065600
30
0.000000
11
8.087900
21
221.059100
31
0.000000
0
LINE
10
8.087900
20
221.059100
30
0.000000
11
6.086800
21
221.054100
31
0.000000
0
LINE
10
6.086800
20
221.054100
30
0.000000
11
4.088700
21
221.050500
31
0.000000
0
LINE
10
4.088700
20
221.050500
30
0.000000
11
2.088500
21
221.041900
31
0.000000
0
LINE
10
2.088500
20
221.041900
30
0.000000
11
0.515800
21
221.104000
31
0.000000
0
LINE
10
0.515800
20
221.104000
30
0.000000
11
-0.608600
21
220.235200
31
0.000000
0
LINE
10
-0.608600
20
220.235200
30
0.000000
11
-0.431500
21
217.752800
31
0.000000
0
LINE
10
-0.431500
20
217.752800
30
0.000000
11
-0.419600
21
215.758400
31
0.000000
0
LINE
10
-0.419600
20
215.758400
30
0.000000
11
-0.411600
21
213.756000
31
0.000000
0
LINE
10
-0.411600
20
213.756000
30
0.000000
11
-0.405400
21
211.755700
31
0.000000
0
LINE
10
-0.405400
20
211.755700
30
0.000000
11
-0.397900
21
209.756600
31
0.000000
0
LINE
10
-0.397900
20
209.756600
30
0.000000
11
-0.390100
21
207.758300
31
0.000000
0
LINE
10
-0.390100
20
207.758300
30
0.000000
11
-0.380300
21
205.757900
31
0.000000
0
LINE
10
-0.380300
20
205.757900
30
0.000000
11
-0.375800
21
203.758100
31
0.000000
0
LINE
10
-0.375800
20
203.758100
30
0.000000
11
-0.368100
21
201.758600
31
0.000000
0
LINE
10
-0.368100
20
201.758600
30
0.000000
11
-0.364300
21
199.758800
31
0.000000
0
LINE
10
-0.364300
20
199.758800
30
0.000000
11
-0.358800
21
197.761300
31
0.000000
0
LINE
10
-0.358800
20
197.761300
30
0.000000
11
-0.353000
21
195.763000
31
0.000000
0
LINE
10
-0.353000
20
195.763000
30
0.000000
11
-0.347500
21
193.765100
31
0.000000
0
LINE
10
-0.347500
20
193.765100
30
0.000000
11
-0.340100
21
191.766200
31
0.000000
0
LINE
10
-0.340100
20
191.766200
30
0.000000
11
-0.332100
21
189.764000
31
0.000000
0
LINE
10
-0.332100
20
189.764000
30
0.000000
11
-0.327600
21
187.763400
31
0.000000
0
LINE
10
-0.327600
20
187.763400
30
0.000000
11
-0.323200
21
185.763800
31
0.000000
0
LINE
10
-0.323200
20
185.763800
30
0.000000
11
-0.316100
21
183.765900
31
0.000000
0
LINE
10
-0.316100
20
183.765900
30
0.000000
11
-0.307900
21
181.766200
31
0.000000
0
LINE
10
-0.307900
20
181.766200
30
0.000000
11
-0.301600
21
179.764900
31
0.000000
0
LINE
10
-0.301600
20
179.764900
30
0.000000
11
-0.297000
21
177.764700
31
0.000000
0
LINE
10
-0.297000
20
177.764700
30
0.000000
11
-0.293800
21
175.766300
31
0.000000
0
LINE
10
-0.293800
20
175.766300
30
0.000000
11
-0.286500
21
173.769400
31
0.000000
0
LINE
10
-0.286500
20
173.769400
30
0.000000
11
-0.279400
21
171.770300
31
0.000000
0
LINE
10
-0.279400
20
171.770300
30
0.000000
11
-0.273800
21
169.770600
31
0.000000
0
LINE
10
-0.273800
20
169.770600
30
0.000000
11
-0.268300
21
167.772500
31
0.000000
0
LINE
10
-0.268300
20
167.772500
30
0.000000
11
-0.260700
21
165.773100
31
0.000000
0
LINE
10
-0.260700
20
165.773100
30
0.000000
11
-0.255800
21
163.774000
31
0.000000
0
LINE
10
-0.255800
20
163.774000
30
0.000000
11
-0.250400
21
161.776200
31
0.000000
0
LINE
10
-0.250400
20
161.776200
30
0.000000
11
-0.243400
21
159.776700
31
0.000000
0
LINE
10
-0.243400
20
159.776700
30
0.000000
11
-0.239100
21
157.777200
31
0.000000
0
LINE
10
-0.239100
20
157.777200
30
0.000000
11
-0.235200
21
155.778500
31
0.000000
0
LINE
10
-0.235200
20
155.778500
30
0.000000
11
-0.228400
21
153.780300
31
0.000000
0
LINE
10
-0.228400
20
153.780300
30
0.000000
11
-0.222100
21
151.780700
31
0.000000
0
LINE
10
-0.222100
20
151.780700
30
0.000000
11
-0.217300
21
149.780300
31
0.000000
0
LINE
10
-0.217300
20
149.780300
30
0.000000
11
-0.212800
21
147.780900
31
0.000000
0
LINE
10
-0.212800
20
147.780900
30
0.000000
11
-0.207600
21
145.783100
31
0.000000
0
LINE
10
-0.207600
20
145.783100
30
0.000000
11
-0.198300
21
143.782800
31
0.000000
0
LINE
10
-0.198300
20
143.782800
30
0.000000
11
-0.195600
21
141.782500
31
0.000000
0
LINE
10
-0.195600
20
141.782500
30
0.000000
11
-0.188800
21
139.783600
31
0.000000
0
LINE
10
-0.188800
20
139.783600
30
0.000000
11
-0.185500
21
137.784900
31
0.000000
0
LINE
10
-0.185500
20
137.784900
30
0.000000
11
-0.178200
21
135.784500
31
0.000000
0
LINE
10
-0.178200
20
135.784500
30
0.000000
11
-0.178600
21
133.785800
31
0.000000
0
LINE
10
-0.178600
20
133.785800
30
0.000000
11
-0.170000
21
131.789200
31
0.000000
0
LINE
10
-0.170000
20
131.789200
30
0.000000
11
-0.163600
21
129.789500
31
0.000000
0
LINE
10
-0.163600
20
129.789500
30
0.000000
11
-0.157100
21
127.789200
31
0.000000
0
LINE
10
-0.157100
20
127.789200
30
0.000000
11
-0.151600
21
125.789900
31
0.000000
0
LINE
10
-0.151600
20
125.789900
30
0.000000
11
-0.144700
21
123.789900
31
0.000000
0
LINE
10
-0.144700
20
123.789900
30
0.000000
11
-0.140400
21
121.791300
31
0.000000
0
LINE
10
-0.140400
20
121.791300
30
0.000000
11
-0.132500
21
119.792900
31
0.000000
0
LINE
10
-0.132500
20
119.792900
30
0.000000
11
-0.125000
21
117.792600
31
0.000000
0
LINE
10
-0.125000
20
117.792600
30
0.000000
11
-0.120200
21
115.792300
31
0.000000
0
LINE
10
-0.120200
20
115.792300
30
0.000000
11
-0.294600
21
113.080800
31
0.000000
0
LINE
10
-0.294600
20
113.080800
30
0.000000
11
-1.626300
21
111.736200
31
0.000000
0
LINE
10
-1.626300
20
111.736200
30
0.000000
11
-2.277600
21
111.390200
31
0.000000
0
LINE
10
-2.277600
20
111.390200
30
0.000000
11
-3.184800
21
110.649100
31
0.000000
0
LINE
10
-3.184800
20
110.649100
30
0.000000
11
-3.197500
21
109.007500
31
0.000000
0
LINE
10
-3.197500
20
109.007500
30
0.000000
11
-0.371600
21
107.050600
31
0.000000
0
LINE
10
-0.371600
20
107.050600
30
0.000000
11
-0.111500
21
104.786700
31
0.000000
0
LINE
10
-0.111500
20
104.786700
30
0.000000
11
-0.112100
21
104.349600
31
0.000000
0
LINE
10
-0.112100
20
104.349600
30
0.000000
11
-0.110000
21
102.354800
31
0.000000
0
LINE
10
-0.110000
20
102.354800
30
0.000000
11
-0.106200
21
100.352400
31
0.000000
0
LINE
10
-0.106200
20
100.352400
30
0.000000
11
-0.112400
21
98.351700
31
0.000000
0
LINE
10
-0.112400
20
98.351700
30
0.000000
11
-0.112800
21
96.356500
31
0.000000
0
LINE
10
-0.112800
20
96.356500
30
0.000000
11
-0.113600
21
94.359400
31
0.000000
0
LINE
10
-0.113600
20
94.359400
30
0.000000
11
-0.110800
21
92.361400
31
0.000000
0
LINE
10
-0.110800
20
92.361400
30
0.000000
11
-0.109700
21
90.361600
31
0.000000
0
LINE
10
-0.109700
20
90.361600
30
0.000000
11
-0.108100
21
88.363000
31
0.000000
0
LINE
10
-0.108100
20
88.363000
30
0.000000
11
-0.104900
21
86.363400
31
0.000000
0
LINE
10
-0.104900
20
86.363400
30
0.000000
11
-0.103300
21
84.362500
31
0.000000
0
LINE
10
-0.103300
20
84.362500
30
0.000000
11
-0.104200
21
82.364500
31
0.000000
0
LINE
10
-0.104200
20
82.364500
30
0.000000
11
-0.099800
21
80.366800
31
0.000000
0
LINE
10
-0.099800
20
80.366800
30
0.000000
11
-0.098100
21
78.366100
31
0.000000
0
LINE
10
-0.098100
20
78.366100
30
0.000000
11
-0.097000
21
76.367100
31
0.000000
0
LINE
10
-0.097000
20
76.367100
30
0.000000
11
-0.095200
21
74.369200
31
0.000000
0
LINE
10
-0.095200
20
74.369200
30
0.000000
11
-0.091800
21
72.370100
31
0.000000
0
LINE
10
-0.091800
20
72.370100
30
0.000000
11
-0.089700
21
70.369700
31
0.000000
0
LINE
10
-0.089700
20
70.369700
30
0.000000
11
-0.088500
21
68.370700
31
0.000000
0
LINE
10
-0.088500
20
68.370700
30
0.000000
11
-0.085200
21
66.372200
31
0.000000
0
LINE
10
-0.085200
20
66.372200
30
0.000000
11
-0.082400
21
64.371700
31
0.000000
0
LINE
10
-0.082400
20
64.371700
30
0.000000
11
-0.082100
21
62.372600
31
0.000000
0
LINE
10
-0.082100
20
62.372600
30
0.000000
11
-0.078500
21
60.374100
31
0.000000
0
LINE
10
-0.078500
20
60.374100
30
0.000000
11
-0.076200
21
58.373800
31
0.000000
0
LINE
10
-0.076200
20
58.373800
30
0.000000
11
-0.075200
21
56.374600
31
0.000000
0
LINE
10
-0.075200
20
56.374600
30
0.000000
11
-0.073000
21
54.374700
31
0.000000
0
LINE
10
-0.073000
20
54.374700
30
0.000000
11
-0.072200
21
52.375600
31
0.000000
0
LINE
10
-0.072200
20
52.375600
30
0.000000
11
-0.068800
21
50.375900
31
0.000000
0
LINE
10
-0.068800
20
50.375900
30
0.000000
11
-0.067800
21
48.375300
31
0.000000
0
LINE
10
-0.067800
20
48.375300
30
0.000000
11
-0.067400
21
46.376500
31
0.000000
0
LINE
10
-0.067400
20
46.376500
30
0.000000
11
-0.063900
21
44.377100
31
0.000000
0
LINE
10
-0.063900
20
44.377100
30
0.000000
11
-0.063700
21
42.377300
31
0.000000
0
LINE
10
-0.063700
20
42.377300
30
0.000000
11
-0.060200
21
40.377900
31
0.000000
0
LINE
10
-0.060200
20
40.377900
30
0.000000
11
-0.060000
21
38.377700
31
0.000000
0
LINE
10
-0.060000
20
38.377700
30
0.000000
11
-0.057900
21
36.378800
31
0.000000
0
LINE
10
-0.057900
20
36.378800
30
0.000000
11
-0.056600
21
34.378600
31
0.000000
0
LINE
10
-0.056600
20
34.378600
30
0.000000
11
-0.056200
21
32.380900
31
0.000000
0
LINE
10
-0.056200
20
32.380900
30
0.000000
11
-0.050000
21
30.380900
31
0.000000
0
LINE
10
-0.050000
20
30.380900
30
0.000000
11
-0.051800
21
28.380600
31
0.000000
0
LINE
10
-0.051800
20
28.380600
30
0.000000
11
-0.046300
21
26.381100
31
0.000000
0
LINE
10
-0.046300
20
26.381100
30
0.000000
11
-0.046900
21
24.378500
31
0.000000
0
LINE
10
-0.046900
20
24.378500
30
0.000000
11
-0.048000
21
22.380500
31
0.000000
0
LINE
10
-0.048000
20
22.380500
30
0.000000
11
-0.045400
21
20.383300
31
0.000000
0
LINE
10
-0.045400
20
20.383300
30
0.000000
11
-0.041800
21
18.383300
31
0.000000
0
LINE
10
-0.041800
20
18.383300
30
0.000000
11
-0.040900
21
16.383400
31
0.000000
0
LINE
10
-0.040900
20
16.383400
30
0.000000
11
-0.038800
21
14.384100
31
0.000000
0
LINE
10
-0.038800
20
14.384100
30
0.000000
11
-0.037700
21
12.384200
31
0.000000
0
LINE
10
-0.037700
20
12.384200
30
0.000000
11
-0.036800
21
10.385100
31
0.000000
0
LINE
10
-0.036800
20
10.385100
30
0.000000
11
-0.033500
21
8.384300
31
0.000000
0
LINE
10
-0.033500
20
8.384300
30
0.000000
11
-0.034500
21
6.195000
31
0.000000
0
LINE
10
-0.034500
20
6.195000
30
0.000000
11
-0.030600
21
4.004600
31
0.000000
0
ENDSEC
0
EOF
